<svg width="879" height="1139" viewBox="0 0 879 1139" fill="none" xmlns="http://www.w3.org/2000/svg">
<path d="M228.264 2.70434L894 2.76266L894 99.3596L228.264 99.301C196.437 99.301 166.471 111.711 143.954 134.258C121.436 156.805 108.984 186.809 108.984 218.678L108.984 218.736C108.984 253.926 119.167 283.581 138.484 304.438C159.14 326.752 189.28 338.113 228.148 338.113L508.648 338.171C530.933 338.171 552.578 342.599 573.001 351.222C592.668 359.612 610.356 371.497 625.484 386.703C640.671 401.909 652.541 419.621 660.861 439.313C669.473 459.762 673.836 481.377 673.836 503.691L673.836 503.749C673.836 526.063 669.414 547.736 660.803 568.186C652.424 587.878 640.554 605.589 625.368 620.737C610.182 635.943 592.493 647.829 572.826 656.16C552.403 664.783 530.758 669.153 508.473 669.153L507.973 669.094C476.146 669.094 446.18 681.503 423.663 704.051C401.145 726.598 388.693 756.602 388.693 788.471L388.693 788.529C388.693 823.719 398.876 853.374 418.193 874.231C438.849 896.545 468.989 907.906 507.857 907.906L892.357 907.964C914.642 907.964 936.287 912.392 956.71 921.015C976.377 929.404 994.065 941.29 1009.19 956.496C1024.38 971.702 1036.25 989.414 1044.57 1009.11C1053.18 1029.56 1057.55 1051.17 1057.55 1073.48L1057.55 1073.54C1057.55 1095.86 1053.12 1117.53 1044.51 1137.98C1036.13 1157.67 1024.26 1175.38 1009.08 1190.53C993.891 1205.74 976.202 1217.62 956.536 1225.95C936.112 1234.58 914.468 1238.95 892.183 1238.95L219.682 1238.89C153.933 1238.83 100.402 1292.37 100.402 1358.21L100.402 1358.26C100.402 1393.45 110.585 1423.11 129.902 1443.97C150.558 1466.28 180.698 1477.64 219.566 1477.64L653.812 1477.64C676.097 1477.64 697.742 1482.07 718.165 1490.69C737.831 1499.08 755.52 1510.97 770.648 1526.17C785.834 1541.38 797.704 1559.09 806.025 1578.78C814.636 1599.23 819 1620.85 819 1643.16L819 1643.22C819 1665.53 814.578 1687.21 805.967 1707.66C797.588 1727.35 785.718 1745 770.532 1760.21C755.345 1775.41 737.657 1787.3 717.99 1795.63C697.567 1804.25 675.922 1808.62 653.637 1808.62L501.137 1808.56C469.31 1808.56 439.344 1820.97 416.826 1843.52C394.309 1866.07 381.857 1896.07 381.857 1927.94L381.857 1928C381.857 1963.19 392.039 1992.84 411.357 2013.7C432.013 2036.01 462.153 2047.38 501.021 2047.38L653.521 2047.43C675.806 2047.43 697.451 2051.86 717.874 2060.48C737.541 2068.87 755.229 2080.76 770.357 2095.96C785.544 2111.17 797.413 2128.88 805.734 2148.57C814.345 2169.02 818.709 2190.64 818.709 2212.95L818.709 2213.01C818.709 2235.33 814.287 2257 805.676 2277.45C797.297 2297.14 785.427 2314.85 770.241 2330C755.054 2345.21 737.366 2357.09 717.699 2365.42C697.276 2374.04 675.631 2378.41 653.346 2378.41L220.846 2378.36C189.019 2378.36 159.053 2390.77 136.536 2413.31C114.018 2435.86 101.566 2465.86 101.566 2497.73L101.566 2497.79C101.566 2532.98 111.749 2562.64 131.066 2583.49C151.722 2605.81 181.862 2617.17 220.73 2617.17L653.23 2617.23C675.515 2617.23 697.16 2621.65 717.583 2630.28C737.25 2638.67 754.938 2650.55 770.066 2665.76C785.253 2680.96 797.122 2698.68 805.443 2718.37C814.054 2738.82 818.418 2760.43 818.418 2782.75L818.418 2782.8C818.418 2805.12 813.996 2826.79 805.385 2847.24C797.006 2866.93 785.136 2884.64 769.95 2899.79C754.763 2915 737.075 2926.88 717.408 2935.21C696.985 2943.84 675.34 2948.21 653.055 2948.21L500.555 2948.15C468.728 2948.15 438.762 2960.56 416.245 2983.11C393.727 3005.65 381.275 3035.66 381.275 3067.53L381.275 3067.58C381.275 3102.77 391.458 3132.43 410.775 3153.29C431.431 3175.6 461.571 3186.96 500.439 3186.96L652.939 3187.02C675.224 3187.02 696.869 3191.45 717.292 3200.07C736.959 3208.46 754.647 3220.34 769.775 3235.55C784.962 3250.76 796.832 3268.47 805.152 3288.16C813.764 3308.61 818.127 3330.22 818.127 3352.54L818.127 3352.6C818.127 3374.91 813.705 3396.58 805.094 3417.03C796.715 3436.73 784.845 3454.44 769.659 3469.58C754.473 3484.79 736.784 3496.68 717.118 3505.01C696.694 3513.63 675.049 3518 652.764 3518L652.823 3420.41C690.178 3420.41 720.609 3390 720.609 3352.6L720.609 3352.54C720.609 3315.14 690.236 3284.66 652.881 3284.66L500.381 3284.61C434.224 3284.55 378.482 3262.12 339.207 3219.65C320.762 3199.72 306.623 3176.07 297.197 3149.27C288.295 3123.98 283.756 3096.48 283.756 3067.64L283.756 3067.53C283.815 3038.22 289.517 3009.85 300.863 2983.05C311.744 2957.24 327.395 2934.05 347.295 2914.12C367.194 2894.26 390.352 2878.59 416.186 2867.69C442.952 2856.39 471.346 2850.68 500.555 2850.68L653.055 2850.74C690.41 2850.74 720.841 2820.32 720.841 2782.92C720.841 2764.8 713.801 2747.79 701 2734.97C688.257 2722.15 671.209 2715.1 653.113 2715.1L220.613 2715.05C154.457 2714.99 98.715 2692.56 59.4398 2650.09C40.9951 2630.16 26.856 2606.51 17.4299 2579.71C8.52758 2554.42 3.98911 2526.92 3.98911 2498.08L3.98911 2497.97C4.04729 2468.66 9.74947 2440.29 21.0956 2413.49C31.9763 2387.68 47.6282 2364.49 67.5276 2344.56C87.427 2324.7 110.585 2309.03 136.419 2298.13C163.184 2286.83 191.579 2281.12 220.788 2281.12L653.288 2281.18C690.643 2281.18 721.074 2250.76 721.074 2213.36L721.074 2213.3C721.074 2195.18 714.034 2178.17 701.233 2165.35C688.49 2152.54 671.442 2145.49 653.346 2145.49L500.846 2145.43C434.689 2145.37 378.948 2122.94 339.673 2080.47C321.228 2060.54 307.089 2036.89 297.663 2010.09C288.76 1984.8 284.222 1957.3 284.222 1928.46L284.222 1928.35C284.28 1899.04 289.982 1870.67 301.328 1843.87C312.209 1818.06 327.861 1794.87 347.76 1774.95C367.66 1755.08 390.818 1739.41 416.652 1728.51C443.417 1717.21 471.812 1711.5 501.021 1711.5L653.521 1711.56C690.876 1711.56 721.307 1681.15 721.307 1643.74C721.307 1606.34 690.934 1575.87 653.579 1575.87L219.624 1575.87C153.467 1575.81 97.7258 1553.38 58.4506 1510.91C40.0059 1490.98 25.8668 1467.33 16.4407 1440.53C7.53837 1415.24 2.99991 1387.74 2.99991 1358.9L2.99991 1358.79C3.05809 1329.48 8.76027 1301.11 20.1064 1274.31C30.9871 1248.5 46.639 1225.31 66.5384 1205.39C86.4378 1185.52 109.596 1169.85 135.43 1158.95C162.195 1147.65 190.59 1141.94 219.799 1141.94L892.299 1142C910.394 1142 927.443 1134.95 940.244 1122.13C953.044 1109.37 960.085 1092.3 960.085 1074.18L960.085 1074.12C960.085 1056.01 959.432 1039.5 948.244 1026.18C935.5 1011 910.453 1006.31 892.357 1006.31L507.857 1006.25C441.7 1006.19 385.959 983.762 346.683 941.29C328.239 921.364 314.099 897.71 304.673 870.91C295.771 845.625 291.233 818.126 291.233 789.287L291.233 789.17C291.291 759.865 296.993 731.492 308.339 704.692C319.22 678.882 334.872 655.694 354.771 635.769C374.671 615.902 397.828 600.23 423.663 589.335C450.428 578.032 478.822 572.322 508.032 572.322L508.532 572.381C526.627 572.381 543.676 565.331 556.476 552.514C569.277 539.755 576.318 522.684 576.318 504.565L576.318 504.507C576.318 486.387 569.277 469.375 556.476 456.558C543.734 443.74 526.685 436.691 508.59 436.691L228.09 436.632C161.933 436.574 106.191 414.144 66.9161 371.671C48.4713 351.746 34.3322 328.092 24.9062 301.292C16.0038 276.007 11.4653 248.508 11.4653 219.669L11.4653 219.552C11.5235 190.247 17.2257 161.874 28.5719 135.073C39.4525 109.264 55.1044 86.0762 75.0038 66.1509C94.9032 46.2839 118.061 30.6116 143.895 19.7168C170.661 8.41406 199.055 2.70434 228.264 2.70434Z" stroke="#008C49" stroke-width="5" stroke-miterlimit="10"/>
</svg>
